<?xml version="1.0" encoding="utf-8"?>
<svg xmlns="http://www.w3.org/2000/svg" id="svg2" viewBox="0 0 701.02 100" version="1.0">
  <g id="layer1" transform="translate(-21.353 -252.84)">
    <g id="g3551">
      <path id="rect2383" style="stroke: rgb(0, 0, 0); stroke-linecap: round; stroke-width: 3; fill: rgb(59, 52, 52);" d="m22.853 254.34h698.02v96.98h-698.02l0.003-96.98z"/>
      <rect id="rect3165" style="fill:#ffffff" height="5.5558" width="22.223" y="257.05" x="26.388"/>
      <rect id="rect3167" style="fill:#ffffff" height="5.5558" width="22.223" y="266.61" x="26.388"/>
      <rect id="rect3169" style="fill:#ffffff" height="5.5558" width="22.223" y="276.16" x="26.388"/>
      <rect id="rect3173" style="fill:#ffffff" height="5.5558" width="22.223" y="285.72" x="26.388"/>
      <rect id="rect3175" style="fill:#ffffff" height="5.5558" width="22.223" y="295.27" x="26.388"/>
      <rect id="rect3179" style="fill:#ffffff" height="5.5558" width="22.223" y="304.83" x="26.388"/>
      <rect id="rect3181" style="fill:#ffffff" height="5.5558" width="22.223" y="314.38" x="26.388"/>
      <rect id="rect3185" style="fill:#ffffff" height="5.5558" width="22.223" y="323.94" x="26.388"/>
      <rect id="rect3187" style="fill:#ffffff" height="5.5558" width="22.223" y="333.5" x="26.388"/>
      <rect id="rect3189" style="fill:#ffffff" height="5.5558" width="22.223" y="343.05" x="26.388"/>
      <rect id="rect3205" style="fill:#ffffff" height="5.5558" width="22.223" y="257.05" x="693.88"/>
      <rect id="rect3207" style="fill:#ffffff" height="5.5558" width="22.223" y="266.61" x="693.88"/>
      <rect id="rect3209" style="fill:#ffffff" height="5.5558" width="22.223" y="276.16" x="693.88"/>
      <rect id="rect3211" style="fill:#ffffff" height="5.5558" width="22.223" y="285.72" x="693.88"/>
      <rect id="rect3213" style="fill:#ffffff" height="5.5558" width="22.223" y="295.27" x="693.88"/>
      <rect id="rect3215" style="fill:#ffffff" height="5.5558" width="22.223" y="304.83" x="693.88"/>
      <rect id="rect3217" style="fill:#ffffff" height="5.5558" width="22.223" y="314.38" x="693.88"/>
      <rect id="rect3219" style="fill:#ffffff" height="5.5558" width="22.223" y="323.94" x="693.88"/>
      <rect id="rect3221" style="fill:#ffffff" height="5.5558" width="22.223" y="333.5" x="693.88"/>
      <rect id="rect3223" style="fill:#ffffff" height="5.5558" width="22.223" y="343.05" x="693.88"/>
      <path id="rect3235" style="fill:#ffffff" d="m637.19 300.05h22.23v5.56h-22.23v-5.56z"/>
      <path id="rect3249" style="fill:#ffffff" d="m593.19 300.05h22.23v5.56h-22.23v-5.56z"/>
      <path id="rect3251" style="fill:#ffffff" d="m543.19 300.05h22.23v5.56h-22.23v-5.56z"/>
      <path id="rect3253" style="fill:#ffffff" d="m543.19 300.05h22.23v5.56h-22.23v-5.56z"/>
      <path id="rect3255" style="fill:#ffffff" d="m401.19 300.05h22.23v5.56h-22.23v-5.56z"/>
      <path id="rect3257" style="fill:#ffffff" d="m357.19 300.05h22.23v5.56h-22.23v-5.56z"/>
      <path id="rect3259" style="fill:#ffffff" d="m307.19 300.05h22.23v5.56h-22.23v-5.56z"/>
      <path id="rect3261" style="fill:#ffffff" d="m261.19 300.05h22.23v5.56h-22.23v-5.56z"/>
      <path id="rect3263" style="fill:#ffffff" d="m217.19 300.05h22.23v5.56h-22.23v-5.56z"/>
      <path id="rect3265" style="fill:#ffffff" d="m167.19 300.05h22.23v5.56h-22.23v-5.56z"/>
      <path id="rect3267" style="fill:#ffffff" d="m121.19 300.05h22.23v5.56h-22.23v-5.56z"/>
      <path id="rect3269" style="fill:#ffffff" d="m77.193 300.05h22.223v5.56h-22.223v-5.56z"/>
      <path id="rect3271" style="fill:#ffffff" d="m555.61 268.62h51.45v3.06h-51.45v-3.06z"/>
      <path id="rect3273" style="fill:#ffffff" d="m555.61 272.84h51.45v3.05h-51.45v-3.05z"/>
      <path id="rect3275" style="fill:#ffffff" d="m555.61 277.12h51.45v3.06h-51.45v-3.06z"/>
      <path id="rect3277" style="fill:#ffffff" d="m555.61 281.05h51.45v3.06h-51.45v-3.06z"/>
      <path id="rect3279" style="fill:#ffffff" d="m555.61 323.34h51.45v3.05h-51.45v-3.05z"/>
      <path id="rect3281" style="fill:#ffffff" d="m555.61 327.55h51.45v3.06h-51.45v-3.06z"/>
      <path id="rect3283" style="fill:#ffffff" d="m555.61 331.84h51.45v3.05h-51.45v-3.05z"/>
      <path id="rect3285" style="fill:#ffffff" d="m555.61 335.77h51.45v3.05h-51.45v-3.05z"/>
      <path id="rect3319" style="fill:#ffffff" d="m137.61 268.62h51.45v3.06h-51.45v-3.06z"/>
      <path id="rect3321" style="fill:#ffffff" d="m137.61 272.84h51.45v3.05h-51.45v-3.05z"/>
      <path id="rect3323" style="fill:#ffffff" d="m137.61 277.12h51.45v3.06h-51.45v-3.06z"/>
      <path id="rect3325" style="fill:#ffffff" d="m137.61 281.05h51.45v3.06h-51.45v-3.06z"/>
      <path id="rect3327" style="fill:#ffffff" d="m137.61 323.34h51.45v3.05h-51.45v-3.05z"/>
      <path id="rect3329" style="fill:#ffffff" d="m137.61 327.55h51.45v3.06h-51.45v-3.06z"/>
      <path id="rect3331" style="fill:#ffffff" d="m137.61 331.84h51.45v3.05h-51.45v-3.05z"/>
      <path id="rect3333" style="fill:#ffffff" d="m137.61 335.77h51.45v3.05h-51.45v-3.05z"/>
      <path id="rect3335" style="fill:#ffffff" d="m447.19 300.05h22.23v5.56h-22.23v-5.56z"/>
      <path id="rect3337" style="fill:#ffffff" d="m497.19 300.05h22.23v5.56h-22.23v-5.56z"/>
      <text style="fill: rgb(255, 255, 255); font-family: Arial, sans-serif; font-size: 28px; white-space: pre; transform-box: fill-box; transform-origin: 15.5705px 15.6306px;" transform="matrix(0, 1, -1, 0, -12.299441, 26.136415)" x="59.263" y="285.997">33</text>
      <text style="fill: rgb(255, 255, 255); font-family: Arial, sans-serif; font-size: 28px; white-space: pre; transform-box: fill-box; transform-origin: 15.5705px 15.6306px;" transform="matrix(0, -1, 1, 0, 17.423984, 28.698664)" x="642.976" y="282.922">15</text>
    </g>
  </g>
</svg>