<!DOCTYPE svg PUBLIC "-//W3C//DTD SVG 1.1//EN" "http://www.w3.org/Graphics/SVG/1.1/DTD/svg11.dtd">
<!-- Uploaded to: SVG Repo, www.svgrepo.com, Transformed by: SVG Repo Mixer Tools -->
<svg width="800px" height="800px" viewBox="0 0 24 24" fill="none" xmlns="http://www.w3.org/2000/svg">
<g id="SVGRepo_bgCarrier" stroke-width="0"/>
<g id="SVGRepo_tracerCarrier" stroke-linecap="round" stroke-linejoin="round"/>
<g id="SVGRepo_iconCarrier"> <path d="M12 16L18 21H6L12 16Z" stroke="#fac807" stroke-width="2" stroke-linecap="round" stroke-linejoin="round"/> <path d="M3.99927 18C2.74389 16.3287 2 14.2512 2 12C2 6.47715 6.47715 2 12 2C17.5228 2 22 6.47715 22 12C22 14.2512 21.2561 16.3287 20.0007 18" stroke="#fac807" stroke-width="2" stroke-linecap="round" stroke-linejoin="round"/> <path d="M17.1228 15.1252C17.6793 14.215 18 13.1449 18 12C18 8.68629 15.3137 6 12 6C8.68629 6 6 8.68629 6 12C6 13.144 6.32014 14.2131 6.87572 15.1228" stroke="#fac807" stroke-width="2" stroke-linecap="round" stroke-linejoin="round"/> <path d="M14 12C14 10.8954 13.1046 10 12 10C10.8954 10 10 10.8954 10 12" stroke="#fac807" stroke-width="2" stroke-linecap="round" stroke-linejoin="round"/> </g>
</svg>